<?xml version="1.0" encoding="UTF-8"?>
<svg xmlns="http://www.w3.org/2000/svg" version="1.1" xmlns:xlink="http://www.w3.org/1999/xlink" viewBox="0 0 48 48">
  <defs>
    <style>
      .cls-1 {
        fill: #fff;
      }

      .cls-2 {
        fill: red;
      }

      .cls-3 {
        fill: #ff5433;
      }

      .cls-4 {
        fill: #00998b;
      }

      .cls-5 {
        fill: #00748b;
      }

      .cls-6 {
        fill: #00cc8b;
      }

      .cls-7 {
        fill: #b80000;
      }

      .cls-8 {
        fill: url(#linear-gradient);
      }
    </style>
    <linearGradient id="linear-gradient" x1="12.62" y1="43.71" x2="35.38" y2="4.29" gradientUnits="userSpaceOnUse">
      <stop offset="0" stop-color="#ff5433"/>
      <stop offset=".35" stop-color="#00998b"/>
      <stop offset=".67" stop-color="#00748b"/>
      <stop offset="1" stop-color="red"/>
    </linearGradient>
  </defs>
  <!-- Generator: Adobe Illustrator 28.6.0, SVG Export Plug-In . SVG Version: 1.2.0 Build 709)  -->
  <g>
    <g id="Layer_1">
      <g>
        <circle class="cls-1" cx="24" cy="24" r="22.75"/>
        <path class="cls-8" d="M24,3.03c2.83,0,5.58.55,8.16,1.65,2.5,1.06,4.74,2.57,6.67,4.5,1.93,1.93,3.44,4.17,4.5,6.67,1.09,2.58,1.65,5.33,1.65,8.16s-.55,5.58-1.65,8.16c-1.06,2.5-2.57,4.74-4.5,6.67-1.93,1.93-4.17,3.44-6.67,4.5-2.58,1.09-5.33,1.65-8.16,1.65s-5.58-.55-8.16-1.65c-2.5-1.06-4.74-2.57-6.67-4.5-1.93-1.93-3.44-4.17-4.5-6.67-1.09-2.58-1.65-5.33-1.65-8.16s.55-5.58,1.65-8.16c1.06-2.5,2.57-4.74,4.5-6.67,1.93-1.93,4.17-3.44,6.67-4.5,2.58-1.09,5.33-1.65,8.16-1.65M24,1.25C11.43,1.25,1.25,11.43,1.25,24s10.19,22.75,22.75,22.75,22.75-10.19,22.75-22.75S36.57,1.25,24,1.25h0Z"/>
      </g>
      <path class="cls-4" d="M15.48,23.31c-2.39.15-4.69.62-6.86,1.36-.06-.44-.08-.89-.08-1.35v-10.76h4.09c-.04.44-.05.89-.05,1.34,0,3.49,1.07,6.72,2.91,9.4Z"/>
      <path class="cls-6" d="M29.89,23.83c0,.88-.12,1.7-.36,2.46-2.36-1.24-4.93-2.14-7.64-2.62v-6.04h2.27c1.13,0,2.1.21,2.9.63.81.42,1.48,1.15,2.02,2.19.54,1.04.81,2.17.81,3.39Z"/>
      <path class="cls-2" d="M39.46,27.39v7.97c-1.33-2.06-2.95-3.92-4.78-5.53,1.73-.56,3.35-1.39,4.78-2.44Z"/>
      <path class="cls-5" d="M16.6,23.26v10.49c-4.22-1.08-7.43-4.67-7.98-9.07,2.17-.74,4.48-1.21,6.86-1.36.37-.03.75-.04,1.12-.05Z"/>
      <path class="cls-5" d="M29.53,26.29c-.24.75-.59,1.44-1.06,2.07-.72.97-1.73,1.58-3.02,1.81-.42.08-.86.12-1.34.12h-2.22v-6.62c2.71.48,5.28,1.38,7.64,2.62Z"/>
      <path class="cls-7" d="M39.46,35.36v.07h-10.76c-1.89,0-3.67-.49-5.21-1.34h1.01c3.41,0,6.08-.97,8.02-2.9.32-.32.61-.65.88-.99.23-.3.44-.6.63-.92.22.18.44.37.65.56h0c1.84,1.61,3.45,3.47,4.78,5.53Z"/>
      <path class="cls-6" d="M24.53,13.93c-.3,0-.6-.01-.91-.01h-7.01v9.35c-.38,0-.75.02-1.12.05-1.84-2.68-2.91-5.92-2.91-9.4,0-.45.02-.9.05-1.34h6.67c1.9,0,3.68.49,5.23,1.36Z"/>
      <path class="cls-3" d="M28.71,13.91c-.66,0-1.31.06-1.94.17,1.33.17,2.41.46,3.24.87,1.4.69,2.66,1.79,3.77,3.3,1.11,1.5,1.66,3.4,1.66,5.7,0,2-.47,3.78-1.4,5.33.22.18.44.37.65.56h0c1.73-.56,3.35-1.39,4.78-2.44v-2.72c0-5.94-4.82-10.76-10.76-10.76ZM33.63,17.99s-.01-.01-.01-.02,0-.02.01-.02c0,0,.01.01.01.02s0,.02-.01.02Z"/>
    </g>
  </g>
</svg>