<?xml version="1.0" encoding="UTF-8"?>
<svg xmlns="http://www.w3.org/2000/svg" version="1.1" xmlns:xlink="http://www.w3.org/1999/xlink" viewBox="0 0 512 512">
  <defs>
    <style>
      .cls-1 {
        fill: #007ecc;
      }

      .cls-2 {
        fill: #000040;
      }

      .cls-3 {
        stroke: #6cf;
      }

      .cls-3, .cls-4 {
        fill: none;
        stroke-miterlimit: 10;
        stroke-width: .25px;
      }

      .cls-5 {
        fill: #f60;
      }

      .cls-6 {
        fill: #fff;
      }

      .cls-7 {
        fill: red;
      }

      .cls-8 {
        fill: #ff5433;
      }

      .cls-4 {
        stroke: #004c99;
      }

      .cls-9 {
        fill: #b80000;
      }

      .cls-10 {
        fill: url(#linear-gradient);
      }

      .cls-11 {
        fill: #004c99;
      }
    </style>
    <linearGradient id="linear-gradient" x1="127.98" y1="477.74" x2="384.02" y2="34.26" gradientUnits="userSpaceOnUse">
      <stop offset="0" stop-color="#ff5433"/>
      <stop offset=".35" stop-color="#606060"/>
      <stop offset=".67" stop-color="#000040"/>
      <stop offset="1" stop-color="red"/>
    </linearGradient>
  </defs>
  <!-- Generator: Adobe Illustrator 28.6.0, SVG Export Plug-In . SVG Version: 1.2.0 Build 709)  -->
  <g>
    <g id="Layer_1">
      <g>
        <circle class="cls-6" cx="256" cy="256" r="256"/>
        <path class="cls-10" d="M256,20c31.87,0,62.77,6.24,91.86,18.54,28.1,11.89,53.34,28.9,75.02,50.58,21.68,21.68,38.7,46.92,50.58,75.02,12.3,29.08,18.54,59.99,18.54,91.86s-6.24,62.77-18.54,91.86c-11.89,28.1-28.9,53.34-50.58,75.02-21.68,21.68-46.92,38.7-75.02,50.58-29.08,12.3-59.99,18.54-91.86,18.54s-62.77-6.24-91.86-18.54c-28.1-11.89-53.34-28.9-75.02-50.58-21.68-21.68-38.7-46.92-50.58-75.02-12.3-29.08-18.54-59.99-18.54-91.86s6.24-62.77,18.54-91.86c11.89-28.1,28.9-53.34,50.58-75.02,21.68-21.68,46.92-38.7,75.02-50.58,29.08-12.3,59.99-18.54,91.86-18.54M256,0C114.62,0,0,114.62,0,256s114.62,256,256,256,256-114.62,256-256S397.38,0,256,0h0Z"/>
      </g>
      <g>
        <path class="cls-3" d="M364.43,188.17c0,.13-.07.25-.13.25-.08,0-.15-.12-.15-.25s.07-.25.15-.25c.07,0,.13.12.13.25Z"/>
        <path class="cls-11" d="M160.16,248.23c-26.86,1.7-52.75,6.98-77.22,15.35-.62-4.96-.94-10.02-.94-15.15v-121.04h46c-.4,4.96-.61,9.99-.61,15.05,0,39.22,12.09,75.64,32.77,105.8Z"/>
        <path class="cls-1" d="M322.32,254.08c0,9.87-1.36,19.08-4.1,27.64-26.55-13.95-55.46-24.04-85.99-29.49v-67.99h25.5c12.71,0,23.6,2.37,32.66,7.08,9.08,4.71,16.66,12.91,22.76,24.6,6.12,11.7,9.16,24.43,9.16,38.16Z"/>
        <path class="cls-5" d="M364.43,188.17c0,.13-.07.25-.13.25-.08,0-.15-.12-.15-.25s.07-.25.15-.25c.07,0,.13.12.13.25Z"/>
        <path class="cls-7" d="M430,294.13v89.66c-15.01-23.15-33.15-44.08-53.81-62.2,19.52-6.27,37.64-15.62,53.81-27.45Z"/>
        <path class="cls-2" d="M172.78,247.68v117.98c-47.46-12.21-83.65-52.5-89.84-102.08,24.46-8.37,50.35-13.65,77.22-15.35,4.19-.29,8.39-.45,12.63-.55Z"/>
        <path class="cls-2" d="M318.22,281.72c-2.67,8.41-6.66,16.19-11.95,23.33-8.09,10.94-19.43,17.74-34.03,20.39-4.69.86-9.72,1.29-15.08,1.29h-24.93v-74.51c30.53,5.45,59.45,15.53,85.99,29.49Z"/>
        <path class="cls-9" d="M430,383.78v.82h-121.04c-21.27,0-41.26-5.48-58.62-15.13h11.35c38.31,0,68.39-10.89,90.21-32.66,3.58-3.58,6.88-7.31,9.85-11.18,2.59-3.33,4.94-6.76,7.08-10.31,2.49,2.03,4.94,4.12,7.35,6.25h.02c20.66,18.12,38.8,39.05,53.81,62.2Z"/>
        <path class="cls-1" d="M261.93,142.67c-3.33-.1-6.76-.15-10.29-.15h-78.86v105.16c-4.24.1-8.44.27-12.63.55-20.68-30.16-32.77-66.57-32.77-105.8,0-5.06.2-10.09.61-15.05h75.05c21.38,0,41.46,5.55,58.89,15.28Z"/>
        <path class="cls-8" d="M308.96,142.52c-7.46,0-14.78.67-21.86,1.97,15,1.9,27.12,5.14,36.41,9.75,15.77,7.82,29.89,20.17,42.37,37.09,12.49,16.9,18.73,38.26,18.73,64.09,0,22.54-5.26,42.52-15.79,59.92,2.49,2.03,4.94,4.12,7.35,6.25h.02c19.52-6.27,37.64-15.62,53.81-27.45v-30.56c0-66.84-54.2-121.04-121.04-121.04ZM364.3,188.42c-.08,0-.15-.12-.15-.25s.07-.25.15-.25c.07,0,.13.12.13.25s-.07.25-.13.25Z"/>
        <path class="cls-4" d="M364.3,187.91c.07,0,.13.12.13.25s-.07.25-.13.25c-.08,0-.15-.12-.15-.25s.07-.25.15-.25Z"/>
        <path class="cls-4" d="M160.16,248.23c4.19-.29,8.39-.45,12.63-.55v16.93c-4.51-5.21-8.71-10.69-12.63-16.37Z"/>
        <path class="cls-4" d="M313.16,215.92c6.12,11.7,9.16,24.43,9.16,38.16,0,9.87-1.36,19.08-4.1,27.64-2.67,8.41-6.66,16.19-11.95,23.33-8.09,10.94-19.43,17.74-34.03,20.39-14-3.36-27.42-8.29-40.01-14.58v-126.62h25.5c12.71,0,23.6,2.37,32.66,7.08,9.08,4.71,16.66,12.91,22.76,24.6Z"/>
      </g>
    </g>
  </g>
</svg>